<?xml version="1.0" encoding="UTF-8" standalone="no"?>
<!-- Generator: Adobe Illustrator 19.0.0, SVG Export Plug-In . SVG Version: 6.00 Build 0)  -->

<svg
     xmlns:dc="http://purl.org/dc/elements/1.1/"
     xmlns:cc="http://creativecommons.org/ns#"
     xmlns:rdf="http://www.w3.org/1999/02/22-rdf-syntax-ns#"
     xmlns:svg="http://www.w3.org/2000/svg"
     xmlns="http://www.w3.org/2000/svg"
     xmlns:sodipodi="http://sodipodi.sourceforge.net/DTD/sodipodi-0.dtd"
     xmlns:inkscape="http://www.inkscape.org/namespaces/inkscape"
     version="1.1"
     id="Layer_1"
     x="0px"
     y="0px"
     viewBox="0 0 48 48"
     xml:space="preserve"
     sodipodi:docname="bloss-leaf-color-48.svg"
     inkscape:export-filename="/mnt/shared0/bloss.io/bloss-1.0-Fennec/theme/leaflogo-48x48x96dpi.png"
     inkscape:export-xdpi="96"
     inkscape:export-ydpi="96"
     inkscape:version="0.92.4 (5da689c313, 2019-01-14)"
     width="48"
     height="48"><metadata
     id="metadata162"><rdf:RDF><cc:Work
             rdf:about=""><dc:format>image/svg+xml</dc:format><dc:type
                 rdf:resource="http://purl.org/dc/dcmitype/StillImage" /><dc:title /></cc:Work></rdf:RDF></metadata><defs
     id="defs160" /><sodipodi:namedview
     pagecolor="#ffffff"
     bordercolor="#666666"
     borderopacity="1"
     objecttolerance="10"
     gridtolerance="10"
     guidetolerance="10"
     inkscape:pageopacity="0"
     inkscape:pageshadow="2"
     inkscape:window-width="640"
     inkscape:window-height="480"
     id="namedview158"
     showgrid="false"
     inkscape:zoom="27.272554"
     inkscape:cx="18.207786"
     inkscape:cy="24.060097"
     inkscape:current-layer="Layer_1" />
<path
     style="fill:#3a7f0d;stroke-width:1"
     d="m 32.390322,1.9278827e-6 c 0,0 4.24048,10.3740100721173 -13.93342,17.3422000721173 -9.8752797,3.78526 -17.46007967,13.48724 -8.40383,28.4744 0.75,-6.69901 3.96597,-21.46946 17.79446,-24.83996 0,0 -12.87073,4.81271 -14.00768,26.59791 6.61351,0.92853 22.12416,1.55248 26.72921,-11.90773 C 46.650042,17.882922 32.390322,1.9278827e-6 32.390322,1.9278827e-6 Z"
     id="path111"
     inkscape:connector-curvature="0" />
<path
     style="fill:#49a010;stroke-width:1"
     d="m 13.845842,47.483912 c 14.03997,-5.60329 24.25574,-18.72967 25.66567,-34.39942 C 36.641272,5.3422119 32.390322,1.9278827e-6 32.390322,1.9278827e-6 c 0,0 4.24048,10.3740100721173 -13.93342,17.3422000721173 -9.8752797,3.78526 -17.46007967,13.48724 -8.40383,28.4744 0.75,-6.69901 3.96597,-21.46946 17.79446,-24.83996 -7.6e-4,9e-5 -12.83321,4.80081 -14.00169,26.50727 z"
     id="path113"
     inkscape:connector-curvature="0" />
<circle
     style="fill:#3a7f0d;stroke-width:1"
     cx="8.6520767"
     cy="16.375481"
     r="1.3125334"
     id="circle115" />
<g
     id="g125"
     transform="matrix(0.09521461,0,0,0.09521461,0.0390623,1.9278827e-6)"
     style="stroke-width:10.50259018">
	<circle
     style="fill:#49a010;stroke-width:10.50259018"
     cx="133.782"
     cy="158.2"
     r="9.8459997"
     id="circle117" />
	<circle
     style="fill:#49a010;stroke-width:10.50259018"
     cx="124.921"
     cy="64.662003"
     r="24.615"
     id="circle119" />
	<circle
     style="fill:#49a010;stroke-width:10.50259018"
     cx="200.73599"
     cy="120.785"
     r="7.8769999"
     id="circle121" />
	<circle
     style="fill:#49a010;stroke-width:10.50259018"
     cx="266.71301"
     cy="76.476997"
     r="22.646"
     id="circle123" />
</g>
<g
     id="g127"
     transform="translate(0,-456.125)">
</g>
<g
     id="g129"
     transform="translate(0,-456.125)">
</g>
<g
     id="g131"
     transform="translate(0,-456.125)">
</g>
<g
     id="g133"
     transform="translate(0,-456.125)">
</g>
<g
     id="g135"
     transform="translate(0,-456.125)">
</g>
<g
     id="g137"
     transform="translate(0,-456.125)">
</g>
<g
     id="g139"
     transform="translate(0,-456.125)">
</g>
<g
     id="g141"
     transform="translate(0,-456.125)">
</g>
<g
     id="g143"
     transform="translate(0,-456.125)">
</g>
<g
     id="g145"
     transform="translate(0,-456.125)">
</g>
<g
     id="g147"
     transform="translate(0,-456.125)">
</g>
<g
     id="g149"
     transform="translate(0,-456.125)">
</g>
<g
     id="g151"
     transform="translate(0,-456.125)">
</g>
<g
     id="g153"
     transform="translate(0,-456.125)">
</g>
<g
     id="g155"
     transform="translate(0,-456.125)">
</g>
</svg>