<?xml version="1.0" encoding="UTF-8" standalone="no"?>
<!-- Generator: Adobe Illustrator 19.0.0, SVG Export Plug-In . SVG Version: 6.00 Build 0)  -->

<svg
   xmlns:dc="http://purl.org/dc/elements/1.1/"
   xmlns:cc="http://creativecommons.org/ns#"
   xmlns:rdf="http://www.w3.org/1999/02/22-rdf-syntax-ns#"
   xmlns:svg="http://www.w3.org/2000/svg"
   xmlns="http://www.w3.org/2000/svg"
   xmlns:sodipodi="http://sodipodi.sourceforge.net/DTD/sodipodi-0.dtd"
   xmlns:inkscape="http://www.inkscape.org/namespaces/inkscape"
   version="1.1"
   id="Layer_1"
   x="0px"
   y="0px"
   viewBox="0 0 504.125 504.125"
   style="enable-background:new 0 0 504.125 504.125;"
   xml:space="preserve"
   sodipodi:docname="leaf-svgrepo-com.svg"
   inkscape:export-filename="/tmp/shared0/bloss.io/bloss-1.0-Fennec/theme/leaflogo-504x504x96dpi.png"
   inkscape:export-xdpi="96"
   inkscape:export-ydpi="96"
   inkscape:version="0.92.4 (5da689c313, 2019-01-14)"><metadata
   id="metadata162"><rdf:RDF><cc:Work
       rdf:about=""><dc:format>image/svg+xml</dc:format><dc:type
         rdf:resource="http://purl.org/dc/dcmitype/StillImage" /><dc:title></dc:title></cc:Work></rdf:RDF></metadata><defs
   id="defs160" /><sodipodi:namedview
   pagecolor="#ffffff"
   bordercolor="#666666"
   borderopacity="1"
   objecttolerance="10"
   gridtolerance="10"
   guidetolerance="10"
   inkscape:pageopacity="0"
   inkscape:pageshadow="2"
   inkscape:window-width="640"
   inkscape:window-height="480"
   id="namedview158"
   showgrid="false"
   inkscape:zoom="3.0686834"
   inkscape:cx="241.96045"
   inkscape:cy="252.0625"
   inkscape:current-layer="Layer_1" />
<path
   style="fill:#3A7F0D;"
   d="M339.772,0c0,0,44.536,108.954-146.337,182.138C89.719,221.893,10.059,323.789,105.173,481.193  c7.877-70.357,41.653-225.485,186.888-260.884c0,0-135.176,50.546-147.117,279.347c69.459,9.752,232.361,16.305,280.726-125.062  C489.536,187.817,339.772,0,339.772,0z"
   id="path111" />
<path
   style="fill:#49A010;"
   d="M145.007,498.704c147.456-58.849,254.748-196.71,269.556-361.283C384.418,56.107,339.772,0,339.772,0  s44.536,108.954-146.337,182.138C89.719,221.893,10.059,323.789,105.173,481.193c7.877-70.357,41.653-225.485,186.888-260.884  C292.053,220.31,157.279,270.73,145.007,498.704z"
   id="path113" />
<circle
   style="fill:#3A7F0D;"
   cx="90.459"
   cy="171.985"
   r="13.785"
   id="circle115" />
<g
   id="g125">
	<circle
   style="fill:#49A010;"
   cx="133.782"
   cy="158.2"
   r="9.846"
   id="circle117" />
	<circle
   style="fill:#49A010;"
   cx="124.921"
   cy="64.662"
   r="24.615"
   id="circle119" />
	<circle
   style="fill:#49A010;"
   cx="200.736"
   cy="120.785"
   r="7.877"
   id="circle121" />
	<circle
   style="fill:#49A010;"
   cx="266.713"
   cy="76.477"
   r="22.646"
   id="circle123" />
</g>
<g
   id="g127">
</g>
<g
   id="g129">
</g>
<g
   id="g131">
</g>
<g
   id="g133">
</g>
<g
   id="g135">
</g>
<g
   id="g137">
</g>
<g
   id="g139">
</g>
<g
   id="g141">
</g>
<g
   id="g143">
</g>
<g
   id="g145">
</g>
<g
   id="g147">
</g>
<g
   id="g149">
</g>
<g
   id="g151">
</g>
<g
   id="g153">
</g>
<g
   id="g155">
</g>
</svg>